<svg version="1.2" xmlns="http://www.w3.org/2000/svg" viewBox="0 0 200 175" width="200" height="175">
	<title>logo-svg</title>
	<style>
		.s0 { fill: #dfe600 } 
	</style>
	<g id="logo">
		<path id="Layer" fill-rule="evenodd" class="s0" d="m38.4 67.4c-1.4-3.3-2.8-6.7-5.5-9.1-4.2-3.7-10.7-3.8-15.2-7.3-2.3-1.9-3.9-4.6-5.4-7.2-4.5-8.2-8.4-16.7-11.6-25.5-0.5-1.4-0.9-2.9-0.6-4.3 0.6-2.1 2.9-3.2 4.9-4.1q9.2-3.8 18.4-7.6c4.6-2 10.3-3.7 14.1-0.6 1.7 1.4 2.6 3.5 3.4 5.5 3.6 8.9 6.3 18.1 8.2 27.5 0.4 1.6 0.6 3.2 0.3 4.8-0.4 1.9-1.7 3.4-2.7 5.1-2.6 4.5-3.2 10-2.5 15.1 0.7 5.2 2.5 10.2 4.3 15.1 0.5 1.3 1.1 3.1 2 5.2-2.7-2.1-5.7-3.6-8.9-4.6q-1.6-4-3.2-8zm-9.6-57.1c3.9 8.7 10.6 30.8 14.5 28.5 4-2.3-4-22.9-7.3-31.1-2-5.1-9.6-3-7.2 2.6zm-15.6 6.7c-2.3-5.6-9.1-1.8-6.9 3.2 3.7 8.1 12.9 28.2 17.3 26.9 4.4-1.2-6.8-21.3-10.4-30.1zm20.1 26.1c4.4-1.3-5.1-21.5-8.7-30.3-2.3-5.7-8.8-2.4-6.5 2.6 3.6 8.1 10.8 28.9 15.2 27.7z"/>
		<path id="Layer" fill-rule="evenodd" class="s0" d="m32.9 44.1c-3.8 0-7.9-9.1-13.1-21.8-1-2.5-1.9-4.8-2.7-6.5-0.8-1.9-0.7-3.8 0.4-5.3 0.9-1.2 2.4-1.9 4-1.7 1.7 0.2 3.2 1.5 4 3.6 0.6 1.3 1.3 3 2.1 4.7 5.1 12 9.2 22.2 7.5 25.6-0.3 0.7-0.8 1.2-1.5 1.4q-0.4 0-0.7 0.1zm-4.8-8.3c3.3 6.4 4.8 6.2 4.9 6.1 0.1 0 0.1 0 0.2-0.2 1.4-2.8-4.4-16.5-7.6-23.8-0.7-1.8-1.4-3.5-2-4.8-0.6-1.4-1.4-2.2-2.4-2.3q-0.1 0-0.3 0c-0.7 0-1.3 0.3-1.7 0.9-0.7 0.8-0.7 2-0.2 3.2 0.8 1.7 1.8 4 2.8 6.5 1.9 4.8 4.1 10.2 6.3 14.4z"/>
		<path id="Layer" fill-rule="evenodd" class="s0" d="m14.2 16.6c0.9 2.2 2.3 5.2 3.8 8.4 5.2 10.9 8.7 18.9 7.4 21.9-0.3 0.6-0.8 1.1-1.5 1.2q-0.3 0.1-0.7 0.1c-3.7 0-9.2-8.4-17.8-27.5-0.9-2-0.7-4 0.4-5.5 1.1-1.4 2.8-2.2 4.4-2 1 0.1 2.9 0.7 4 3.4zm1.9 9.3c-1.5-3.2-2.9-6.2-3.9-8.5-0.5-1.2-1.3-2-2.2-2.1q-0.2 0-0.3 0c-0.8 0-1.6 0.4-2.2 1.1-0.7 1-0.7 2.2-0.2 3.4 11.5 25.4 15.2 26.6 16 26.3 0.1 0 0.1 0 0.2-0.1 1-2.3-4-13.1-7.4-20.1z"/>
		<path id="Layer" fill-rule="evenodd" class="s0" d="m41.9 39.9c-3.1-1.1-6.4-9.3-10.7-20.7-1.2-3.3-2.4-6.3-3.3-8.5-1.2-2.6-0.3-4.3 0.3-5.1 1-1.4 2.7-2 4.5-1.8 1.9 0.3 3.5 1.5 4.3 3.5 8.2 20.7 10.3 30.4 6.9 32.4q-0.6 0.3-1.2 0.3-0.4 0-0.8-0.1zm-8.7-21.5c2.8 7.4 7 18.6 9.4 19.5 0.1 0 0.2 0 0.2 0 0.8-0.4 2.5-3.9-7.8-29.8-0.5-1.3-1.4-2.1-2.6-2.2q-0.2-0.1-0.4-0.1c-0.9 0-1.7 0.4-2.1 1-0.6 0.8-0.6 1.8-0.1 3.1 1 2.2 2.1 5.3 3.4 8.5z"/>
		<path id="Layer" class="s0" d="m80.3 141.1c-3.3 0.5-6.8-0.1-9.7-1.2-3.7-1.5-6.9-3.9-9.5-6.8 5.3 12 11.4 25.8 13.3 29.4 0.4 0.8 0.9 1.7 1.8 1.9 0.6 0.2 1.2 0.1 1.8-0.1q3.1-0.9 6-2.3c1-0.5 2-1 2.5-2 0.7-1.3 0.2-2.9-0.3-4.3-1-2.9-3.3-8.4-5.9-14.6z"/>
		<path id="Layer" class="s0" d="m199.7 16.7c-1.7-0.6-14.5 24.3-19.2 32.4-5.7 9.8-11.9 5-10.9-2.7 1.6-12 6.2-38.6 5-38.1-1.4 0.5-3.9 8.9-5.5 13.5-2.4 7.4-4.1 15-6.7 22.3-7.2 20.7 2.2 19.9-0.9 28.8-0.8 2.3-1.7 4.8-2.5 7.4 2.8-0.9 5.8-0.9 8.5 0.1q0.7-2.2 1.5-4.4c3.3-9.3 11.7-4.9 19.9-28.3 3.6-10.3 12.5-30.4 10.8-31z"/>
		<path id="Layer" class="s0" d="m150.8 135.3c-4.5 5-10.7 7.3-17.1 8.2-3.6 10.8-7.1 21.7-8 25-0.2 0.8-0.4 1.8 0 2.6 0.4 0.6 0.9 0.9 1.5 1.1q2.9 1.4 6 2.4c1 0.3 2.2 0.5 3.2 0.2 1.4-0.6 2.1-2 2.6-3.4 2.8-6.4 9.3-25.7 13.2-37.8q-0.6 0.9-1.4 1.7z"/>
		<path id="Layer" fill-rule="evenodd" class="s0" d="m53.2 107.5c1.3 0.7 2.3 2.1 2.9 4.2 0.9 3 1.4 6.5 1.4 11.2 0 3.5-1.2 7.1-3.5 10-2.7 3.4-6.7 5.9-11.4 7q-2.9 0.7-6.1 0.7-3.4 0-7.1-0.8c-4.6-1-8.4-2.7-11.3-5-2.4-1.8-4.6-4.7-6.7-8.5-3.5-6.6-4.6-14.2-3.2-21.3 2-10.5 9.4-19.4 19.3-23.5 5.2-2.1 12.7-2.8 17.6 0.4 3.4 2.2 7.8 9.7 6.7 13.7-1 3.5-5.4 5.4-8.5 6.8q-0.8 0.4-1.5 0.7c-0.3 0.2-0.9 0.4-1.6 0.4-1.4-0.1-2.1-1.2-2.5-1.9-0.2-0.3-0.4-0.5-0.5-0.7-0.3-0.3-1-0.5-1.8-0.4-2.1 0.1-4.2 1.3-5.7 3.3-0.9 1.3-1.5 2.6-1.6 3.9-0.1 1.1 0.2 2.3 0.5 3.5 0.6 2.3 1.3 3.9 2.2 5.2 1.2 1.6 2.6 2.7 4.2 3.1 0.9 0.2 2 0.2 3-0.2q0.9-0.3 1.4-0.8c0.6-0.7 0.6-1.8 0.6-3.2 0-0.9 0-1.9 0.2-2.8 0.5-2.5 2.6-4.5 5.2-5q0.8-0.1 1.6-0.2 0.8-0.1 1.6-0.3c1.9-0.4 3.4-0.2 4.6 0.5zm-1.2 23.8c1.9-2.4 2.9-5.5 2.9-8.4 0-4.4-0.4-7.7-1.3-10.4q-0.6-2.2-1.7-2.8c-0.6-0.3-1.5-0.4-2.7-0.1q-1 0.2-1.9 0.3-0.7 0.1-1.4 0.2c-1.6 0.3-2.9 1.5-3.2 2.9-0.1 0.7-0.1 1.5-0.1 2.3 0 1.6 0 3.4-1.2 4.9q-0.9 1.1-2.6 1.6c-1.4 0.5-3 0.5-4.5 0.2-2.1-0.6-4.1-2-5.6-4.1-1.1-1.6-1.9-3.4-2.6-6-0.4-1.4-0.7-2.9-0.6-4.4 0.1-1.8 0.9-3.6 2.1-5.2 2-2.6 4.8-4.3 7.7-4.4 1.6-0.1 2.9 0.3 3.8 1.3 0.3 0.3 0.5 0.7 0.8 1 0.1 0.2 0.4 0.6 0.5 0.7 0 0 0.2-0.1 0.3-0.2q0.7-0.3 1.5-0.7c2.7-1.1 6.4-2.7 7.1-5.1 0.7-2.6-2.9-9-5.6-10.8-1.9-1.3-4.4-1.8-6.9-1.8-2.9 0-6 0.7-8.4 1.6-8.8 3.7-15.8 12.1-17.7 21.6-1.3 6.5-0.2 13.5 3 19.6 1.9 3.5 3.9 6.1 6 7.7 2.6 2 6.1 3.5 10.2 4.4 4.4 1 8.5 1 12.1 0.2 4.1-1 7.6-3.2 10-6.1z"/>
		<path id="Layer" fill-rule="evenodd" class="s0" d="m85.4 101.5c2.2 1.5 3.9 4.1 4.6 7.4 0.3 1.5 0.4 2.8 0.2 4.1-0.5 4.2-4 7.7-8.2 8.2q-0.6 0.1-1.1 0.1c-3.8 0-7.6-2.5-9-6.1q-0.8-2.1-0.6-4.6c0.1-2 0.7-4 1.7-5.7 1.2-2.2 3.5-3.8 6-4.4 2.3-0.5 4.5-0.2 6.4 1zm2 7.9c-0.5-2.5-1.8-4.6-3.5-5.7-0.8-0.6-1.8-0.8-2.9-0.8q-0.7 0-1.4 0.1c-1.9 0.4-3.5 1.6-4.3 3.1-0.9 1.5-1.3 3-1.4 4.7q-0.1 1.9 0.5 3.5c1 2.8 4.3 4.7 7.3 4.4 3-0.4 5.6-3 6-6q0.1-1.5-0.3-3.3z"/>
		<path id="Layer" fill-rule="evenodd" class="s0" d="m105 107.3c0.6 3.6 1.1 8.3-0.2 12.8-1.3 4.1-3.9 7.5-6.4 10.6-2.3 2.8-4.8 5.6-8.2 7-2.3 0.9-4.6 1-7.2 1q-0.5 0-1 0c-5.3 0-10.4-0.3-14.7-2.9-8-4.8-9.6-15.4-9.8-21.3-0.2-7.2 0.8-17.4 7-24.9 4.4-5.2 10.5-7.8 17.3-7.3 7.5 0.5 14.4 4.8 18.5 11.4 2.2 3.6 3.7 7.9 4.7 13.6zm-2.6 0.4c-0.9-5.3-2.3-9.4-4.3-12.7-3.6-5.7-9.9-9.6-16.5-10.1q-0.7 0-1.4 0c-5.3 0-10.2 2.2-13.7 6.4-5.7 6.9-6.6 16.3-6.4 23.1 0.2 5.4 1.6 15 8.5 19.2 3.8 2.2 8.5 2.5 13.4 2.5 2.7 0 5.1 0 7.2-0.8 2.9-1.1 5-3.6 7.2-6.2 2.4-3 4.8-6.1 5.9-9.7 1.2-4 0.7-8.4 0.1-11.7z"/>
		<path id="Layer" fill-rule="evenodd" class="s0" d="m138.4 108.9c0.3 1.5 0.4 2.8 0.2 4.1-0.5 4.2-4.1 7.7-8.3 8.2q-0.5 0.1-1 0.1c-3.9 0-7.6-2.5-9-6.1q-0.8-2.1-0.7-4.6c0.2-2 0.8-4 1.8-5.7 1.2-2.2 3.4-3.8 5.9-4.4 2.3-0.6 4.6-0.2 6.5 1 2.2 1.5 3.8 4.1 4.6 7.4zm-2.6 0.5c-0.6-2.5-1.8-4.6-3.5-5.7-0.8-0.6-1.9-0.8-2.9-0.8q-0.7 0-1.5 0.1c-1.8 0.4-3.4 1.6-4.3 3.1-0.8 1.5-1.3 3-1.4 4.7q-0.1 1.9 0.5 3.5c1.1 2.8 4.3 4.7 7.3 4.4 3-0.4 5.7-3 6-6q0.2-1.5-0.2-3.3z"/>
		<path id="Layer" fill-rule="evenodd" class="s0" d="m148.7 93.7c2.2 3.6 3.7 7.9 4.7 13.6 0.6 3.6 1.1 8.3-0.3 12.8-1.2 4.1-3.8 7.5-6.3 10.6-2.3 2.8-4.8 5.6-8.2 7-2.3 0.9-4.6 1-7.2 1q-0.5 0-1 0c-5.3 0-10.4-0.3-14.7-2.9-8.1-4.8-9.6-15.4-9.8-21.3-0.3-7.2 0.7-17.4 7-24.9 4.4-5.2 10.5-7.8 17.2-7.3 7.6 0.5 14.5 4.8 18.6 11.4zm2.1 14c-0.9-5.3-2.3-9.4-4.4-12.7-3.5-5.8-9.9-9.6-16.4-10.1q-0.7 0-1.4 0c-5.4 0-10.2 2.2-13.7 6.4-5.7 6.9-6.7 16.3-6.4 23.1 0.2 5.4 1.5 15 8.5 19.2 3.8 2.2 8.5 2.5 13.4 2.5 2.7 0 5.1 0 7.2-0.8 2.9-1.1 5-3.6 7.1-6.2 2.4-3 4.8-6.1 5.9-9.7 1.2-4 0.8-8.4 0.2-11.7z"/>
		<path id="Layer" fill-rule="evenodd" class="s0" d="m195.3 123.1c1.5 1.9 3.3 4.1 2.9 7-0.3 2.2-2.2 4.3-4.9 5.5-2.1 1-4.3 1.3-6.3 1.6l-0.9 0.1c-1.5 0.2-3 0.3-4.4-0.3-1.9-0.9-2.6-2.9-3-4q-0.5-1.5-1-3.1c-1.6-4.4-3.1-9-5.5-13.2 0 1.8 0.3 3.6 0.7 5.6q0.2 1 0.3 2c0.8 4.9 0.2 8.3-1.9 10.7-1.7 2-4.6 3-8.4 3q-0.1 0-0.3 0c-0.8 0-2.1 0-3.1-0.7-1.8-1.3-2.1-4.4-2.3-6.7q-0.1-0.8-0.1-1.3c-0.6-3.4-0.8-6.8-1-10.1l-1.8-28.9c-0.1-1-0.2-2.7 1-4 0.6-0.7 1.4-1.1 2.2-1.4l0.5-0.2c3.1-1.3 9.4-4 11.7 0.8 0.4 0.9 0.5 1.7 0.6 2.5l0.1 1c0.2 2.1 0.5 5.4 1.6 7.3 2-2 3.3-5.6 4.5-8.7 0.6-1.7 1.2-3.3 1.9-4.6 0.4-0.8 0.9-1.8 2-2.5 1.5-1 3.5-0.9 4.9-0.6 3.2 0.5 6.3 1.6 9 3.4 0.7 0.4 1.5 1.1 1.7 2.1 0.1 0.7-0.1 1.3-0.2 1.7-2.5 7-6.9 12.7-13.5 17.3 2.1 1.3 3.5 3.3 4.8 5.2 1.8 2.7 3.3 5.4 4.8 8.1q0.8 1.5 1.7 3c0.4 0.8 1 1.5 1.7 2.4zm0.3 6.6c0.3-1.7-1-3.3-2.4-5-0.7-0.9-1.4-1.8-1.9-2.7q-0.9-1.6-1.7-3.1c-1.5-2.6-3-5.3-4.7-7.9-1.5-2.2-3.1-4.5-5.7-5-0.5-0.1-0.9-0.6-1-1.1-0.1-0.5 0.2-1 0.6-1.3 7.2-4.5 12-10.2 14.5-17.4 0.1-0.1 0.1-0.3 0.1-0.4 0 0.1-0.1-0.1-0.5-0.4-2.4-1.5-5.1-2.5-8-3q-2.2-0.3-3.1 0.3c-0.4 0.3-0.7 0.8-1.1 1.5-0.6 1.2-1.1 2.7-1.8 4.3-1.5 4-3.2 8.5-6.3 10.8-0.5 0.3-1.2 0.3-1.7-0.1-2.4-2.3-2.8-6.9-3.1-10l-0.1-0.9c-0.1-0.6-0.1-1.2-0.3-1.7-0.5-0.9-1.4-1.3-2.4-1.3-1.7 0-3.9 0.9-6 1.7l-0.5 0.3c-0.5 0.2-1 0.4-1.3 0.7-0.4 0.5-0.4 1.2-0.3 2.1l1.8 28.9c0.2 3.3 0.4 6.6 0.9 9.9q0.1 0.6 0.2 1.5c0.1 1.3 0.4 4.2 1.2 4.8 0.3 0.2 1.1 0.2 1.7 0.2 3.1 0.1 5.4-0.7 6.7-2.2 1.5-1.7 1.9-4.5 1.3-8.5q-0.2-1-0.4-2c-0.6-3.3-1.2-6.7-0.1-10.2 0.1-0.4 0.5-0.8 1-0.9 0.5 0 1 0.2 1.3 0.6 3.6 5.3 5.7 11.2 7.6 16.9q0.5 1.5 1.1 3.1c0.4 1.3 0.8 2.1 1.6 2.4 0.8 0.4 1.9 0.3 3 0.1l0.9-0.1c2.2-0.3 3.9-0.6 5.5-1.3 1.9-0.9 3.2-2.2 3.4-3.6z"/>
		<path id="Layer" class="s0" d="m68.9 76.9c0.1 0.6 0.7 1.2 1.3 1.2h0.1c7.3-0.2 17.6-1 17.7-1 0.7-0.1 1.3-0.7 1.2-1.4-0.1-0.7-0.7-1.2-1.4-1.2-0.1 0-9.3 0.8-16.4 0.9-0.3-4.1-0.4-9.2-0.6-14.5-0.3-9.9-0.7-20.3-2-27.7-0.1-0.7-0.8-1.2-1.5-1.1-0.7 0.2-1.2 0.8-1 1.5 1.2 7.3 1.6 17.5 1.9 27.4 0.2 5.9 0.4 11.4 0.7 15.9z"/>
		<path id="Layer" class="s0" d="m124.6 36.2c0.2 1.1-0.3 2.5-1.1 3.5-0.4 0.6-0.2 1.4 0.4 1.9q0.3 0.2 0.7 0.2c0.4 0 0.8-0.2 1.1-0.6 1.5-2.1 2.3-5.4 0.5-7.7-1.4-1.7-2.8-1.6-3.6-0.9-0.9 0.7-1.1 2.1-0.4 3 0.2 0.3 1 1.1 2.4 0.6z"/>
		<path id="Layer" class="s0" d="m134 54q0.6 0.2 1.3 0.3c3.4 0.9 9.2 2.4 10 6.3 0.7 3.7-0.8 6.8-4.3 8.4-4.3 2-11.2 1.1-15.5-4.3-0.4-0.6-1.3-0.7-1.8-0.2-0.6 0.4-0.7 1.2-0.2 1.8 3.4 4.4 8.2 6.3 12.6 6.3 2.2 0 4.3-0.5 6-1.3 4.6-2.1 6.7-6.3 5.7-11.2-1.1-5.5-7.9-7.3-11.9-8.3q-0.6-0.1-1.2-0.3c-2.9-0.8-5.8-3.1-5.7-5.8 0.1-2.5 2.5-4.2 3.6-4.8 3.1-1.9 7.7-2.2 11.3 2.6 0.4 0.6 1.3 0.7 1.8 0.3 0.6-0.4 0.7-1.3 0.3-1.8-4.6-6.3-10.9-5.7-14.8-3.3-2.9 1.7-4.7 4.2-4.8 6.9-0.2 4.3 3.8 7.4 7.6 8.4z"/>
		<path id="Layer" class="s0" d="m83 69.9q0.3 0.3 0.8 0.3h0.1l16-1.1c0.7 0 1.2-0.6 1.2-1.4-0.1-0.7-0.7-1.2-1.4-1.2l-14.6 1-0.6-11.1h7.8c0.7 0 1.3-0.6 1.3-1.3 0-0.7-0.6-1.3-1.3-1.3h-7.9l-0.6-11.3 13.9-0.7c0.7 0 1.3-0.6 1.2-1.4 0-0.7-0.6-1.2-1.3-1.2l-15.3 0.8c-0.7 0.1-1.2 0.7-1.2 1.4l1.4 27.6c0.1 0.3 0.2 0.7 0.5 0.9z"/>
		<path id="Layer" class="s0" d="m97 35.1h0.2c4.1-0.4 7.7-0.7 10.8-0.8 0.2 6.3 0.4 12.8 0.7 19.3 0.2 6.8 0.5 13.6 0.7 20.2 0.1 0.7 0.6 1.3 1.3 1.3h0.1c0.7-0.1 1.3-0.7 1.2-1.4-0.2-6.6-0.5-13.4-0.7-20.2-0.3-6.5-0.5-13-0.7-19.3 4.5-0.2 7.1-0.2 7.1-0.2 0.7 0 1.4-0.6 1.4-1.3 0-0.7-0.6-1.3-1.3-1.3-0.1 0-8.1-0.1-20.9 1.1-0.7 0.1-1.2 0.7-1.1 1.4 0 0.7 0.6 1.2 1.2 1.2z"/>
	</g>
</svg>